# xmcd CD database file
#
# Track frame offsets:
#	150
#	113370
#	200111
#	254891
#
# Disc length: 4099 seconds
#
# Revision: 0
# Processed by: cddbd v1.5.2PL0 Copyright (c) Steve Scherf et al.
# Submitted via: CDex 1.70beta2
#
DISCID=37100104
DTITLE=Don Cherry - Orient
DYEAR=1971
DGENRE=Jazz
TTITLE0=Orient
TTITLE1=si ti ra ma
TTITLE2=Eagle Eye
TTITLE3=Togetherness
EXTD=YEAR: 1971
EXTT0=
EXTT1=
EXTT2=
EXTT3=
PLAYORDER=
